<?xml version="1.0" encoding="utf-8"?>
<!-- Generator: Adobe Illustrator 22.1.0, SVG Export Plug-In . SVG Version: 6.00 Build 0)  -->
<svg version="1.1" id="Calque_1" xmlns="http://www.w3.org/2000/svg" xmlns:xlink="http://www.w3.org/1999/xlink" x="0px" y="0px"
	 viewBox="0 0 195.3 107" style="enable-background:new 0 0 195.3 107;" xml:space="preserve">
<style type="text/css">
	.st0{fill:#22B4B6;}
	.st1{fill:#FFFFFF;}
</style>
<title>logo2</title>
<path class="st0" d="M39.8,9.5v9.6c3.6,0.1,7.2,0.7,10.7,1.7c2.4,0.7,4.7,1.9,6.6,3.6c1.5,1.4,2.7,3.2,3.3,5.2
	c0.7,2.2,1,4.5,0.9,6.8v32.9c0,2.3-0.3,4.6-0.9,6.8c-0.6,2-1.8,3.8-3.3,5.2c-1.9,1.7-4.2,2.9-6.6,3.6c-3.5,1-7.1,1.6-10.7,1.7v9.6
	H29.6v-9.6c-3.6-0.1-7.2-0.7-10.7-1.7c-2.4-0.7-4.7-1.9-6.6-3.6C10.7,79.8,9.6,78,9,76c-0.7-2.2-1-4.5-1-6.8V36.4
	c0-2.3,0.3-4.6,1-6.8c0.6-2,1.8-3.8,3.3-5.2c1.9-1.7,4.2-2.9,6.6-3.6c3.5-1,7.1-1.6,10.7-1.7V9.5H39.8z M18.1,69.2
	c0,1,0.1,2,0.4,2.9s0.9,1.7,1.7,2.2c1.1,0.7,2.2,1.3,3.5,1.6c1.9,0.5,3.9,0.8,5.9,0.8V29c-2,0.1-4,0.4-5.9,0.8
	c-1.3,0.3-2.4,0.8-3.5,1.5c-0.8,0.6-1.3,1.3-1.7,2.2c-0.3,0.9-0.5,1.9-0.4,2.9V69.2z M51.3,36.5c0-1-0.1-2-0.4-2.9
	c-0.3-0.9-0.9-1.7-1.7-2.2c-1.1-0.7-2.2-1.2-3.5-1.5c-1.9-0.5-3.9-0.8-5.9-0.9v47.7c2-0.1,3.9-0.4,5.9-0.8c1.2-0.3,2.4-0.8,3.5-1.6
	c0.8-0.5,1.4-1.3,1.7-2.2c0.3-0.9,0.5-1.9,0.4-2.9V36.5z"/>
<path class="st1" d="M79.1,23.9L88,69.3l9.4-45.4h6.7v57.3h-6v-37l-7,37H85l-7.2-37.5v37.5h-6V23.9H79.1z"/>
<path class="st1" d="M133.4,36.5v44.7h-4.5l-1.1-2.5c-2.1,2-4.9,3.1-7.8,3.1c-1.2,0-2.4-0.2-3.6-0.7c-1.1-0.4-2.2-1.1-3-2
	c-0.9-1-1.6-2.1-2-3.4c-0.5-1.5-0.8-3.2-0.7-4.8V36.5h6.5v33.1c0,3.8,1.5,5.8,4.6,5.8c1.9-0.1,3.7-0.9,5-2.3V36.5H133.4z"/>
<path class="st1" d="M150.4,35.9c1.6,0,3.3,0.2,4.8,0.8c1.3,0.4,2.4,1.2,3.4,2.1c0.9,0.9,1.5,1.9,1.9,3.1c0.4,1.2,0.6,2.5,0.6,3.8
	v2.9h-5.9v-2c0-3-1.6-4.5-4.9-4.5c-1.4-0.1-2.7,0.3-3.8,1.2c-0.8,0.8-1.3,2-1.2,3.1c0,0.8,0.2,1.7,0.5,2.4c0.5,1.1,1.3,2.1,2.2,3
	c0.7,0.7,1.5,1.5,2.4,2.3s1.8,1.7,2.8,2.5s1.9,1.7,2.7,2.6c0.8,0.8,1.6,1.6,2.3,2.5c1.1,1.3,2,2.9,2.5,4.5c0.4,1.4,0.7,2.9,0.7,4.5
	c0.1,2.9-0.8,5.8-2.7,8c-1.8,2-4.7,3.1-8.6,3.1c-3.6,0-6.4-0.9-8.4-2.8c-2.1-2-3.2-4.8-3-7.6v-5l5.9,1.5v3c0,1.2,0.4,2.4,1.3,3.3
	c1.2,0.9,2.6,1.4,4.1,1.3c3.5,0,5.2-1.7,5.2-5c0-0.9-0.2-1.9-0.6-2.7c-0.5-1.1-1.2-2-2-2.9s-1.7-1.8-2.6-2.7
	c-0.9-0.9-1.8-1.7-2.7-2.6s-1.8-1.6-2.6-2.4c-0.8-0.7-1.5-1.5-2.2-2.3c-1.2-1.3-2.1-2.9-2.7-4.6c-0.5-1.4-0.8-2.9-0.8-4.3
	c0-3.3,1-5.8,3.1-7.5C144.5,36.7,147.5,35.7,150.4,35.9z"/>
<path class="st1" d="M181.1,61.1c-1,0.9-2.2,1.8-3.6,2.8c-1.4,1-3,2.1-4.7,3.2v3.6c-0.1,1.3,0.4,2.6,1.3,3.6
	c0.9,0.8,2.1,1.2,3.4,1.2c1.3,0.1,2.5-0.4,3.4-1.2c0.9-0.9,1.4-2.2,1.3-3.6v-2.8l5.9-1.5V71c0,1.6-0.3,3.1-0.8,4.5
	c-1.1,2.6-3.2,4.6-5.8,5.6c-1.4,0.5-2.8,0.7-4.3,0.7c-1.4,0-2.9-0.2-4.2-0.7s-2.4-1.2-3.4-2.2s-1.8-2.1-2.3-3.4
	c-0.6-1.4-0.9-3-0.8-4.5V46.7c0-1.5,0.3-3.1,0.8-4.5c0.5-1.3,1.3-2.5,2.3-3.4c1-1,2.2-1.7,3.4-2.2c1.4-0.5,2.8-0.7,4.3-0.7
	c1.3,0,2.7,0.2,3.9,0.6c1.3,0.4,2.5,1.1,3.5,2c1.1,1,1.9,2.3,2.5,3.6c0.7,1.8,1.1,3.7,1,5.6c0.1,2.5-0.5,5-1.7,7.3
	C185.1,57.3,183.3,59.4,181.1,61.1z M172.8,60.8c1.8-1.1,3.5-2.4,5-3.8c1.3-1.2,2.4-2.6,3.2-4.2c0.7-1.5,1-3.1,1-4.8
	c0-2.3-0.5-4-1.4-4.9s-2.1-1.4-3.3-1.3c-1.2-0.1-2.5,0.4-3.3,1.3c-0.8,1.1-1.3,2.4-1.2,3.8V60.8z"/>
</svg>
