<?xml version="1.0" encoding="utf-8"?>
<!-- Generator: Adobe Illustrator 22.1.0, SVG Export Plug-In . SVG Version: 6.00 Build 0)  -->
<svg version="1.1" id="Calque_1" xmlns="http://www.w3.org/2000/svg" xmlns:xlink="http://www.w3.org/1999/xlink" x="0px" y="0px"
	 viewBox="0 0 183.1 199" style="enable-background:new 0 0 183.1 199;" xml:space="preserve">
<style type="text/css">
	.st0{fill:#22B4B6;}
	.st1{fill:#FFFFFF;}
</style>
<title>physics</title>
<path class="st0" d="M92,190.1c-21.8,0-39.5-41-39.5-91.5S70.3,7.1,92,7.1s39.5,41,39.5,91.5S113.8,190.1,92,190.1z M92,21.3
	c-18.4,0-33.4,34.7-33.4,77.4S73.6,176,92,176s33.4-34.7,33.4-77.4S110.4,21.3,92,21.3z"/>
<path class="st0" d="M171.3,52.9c10.9,18.9-15.8,54.7-59.5,80s-88.1,30.4-99,11.6s15.8-54.7,59.5-80S160.4,34,171.3,52.9z M25,137.3
	c9.2,16,46.8,11.6,83.7-9.8S168.2,75.9,159,60s-46.8-11.6-83.7,9.8S15.8,121.4,25,137.3z"/>
<path class="st0" d="M171.3,144.4c-10.9,18.9-55.3,13.7-99-11.6s-70.4-61.1-59.5-80s55.3-13.7,99,11.6S182.1,125.5,171.3,144.4z
	 M25,60c-9.2,15.9,13.4,46.3,50.3,67.6s74.5,25.7,83.7,9.8s-13.4-46.3-50.3-67.6S34.2,44,25,60z"/>
<circle class="st1" cx="92" cy="98.6" r="14.3"/>
</svg>
