<?xml version="1.0" encoding="utf-8"?>
<!-- Generator: Adobe Illustrator 22.1.0, SVG Export Plug-In . SVG Version: 6.00 Build 0)  -->
<svg version="1.1" id="TEXTES_-_NON-VECTO" xmlns="http://www.w3.org/2000/svg" xmlns:xlink="http://www.w3.org/1999/xlink" x="0px"
	 y="0px" viewBox="0 0 758 293" style="enable-background:new 0 0 758 293;" xml:space="preserve">
<style type="text/css">
	.st0{fill:#FFFFFF;}
	.st1{fill:none;}
</style>
<path class="st0" d="M22.4,26.8v139.3c0,58,43.4,97.1,100.6,97.1c15.4,0,29.9-2.9,42.8-8.2l0,0l24-10l34.2,15.6V26.8H22.4z
	 M123.8,211.7l-44.6-20.4V71.7h44.6V211.7z M181.7,191.8l-43.6,19.9v-23.7l43.6-19.9V191.8z"/>
<path class="st0" d="M449.5,118.8c-5.4-10.7-12.5-29.3-14-48.5c-2,0-11.2,0-11.2,0s2.7,34.7,19.3,57.9h11.6
	c16.7-23.2,19.3-57.9,19.3-57.9s-9.2,0-11.2,0C462,89.5,454.9,108,449.5,118.8z"/>
<path class="st0" d="M677.8,47.1h-11.5v23.1h-7V79h7v32.4c0,8.9,4.6,16.6,16,16.6h6.1v-10.3h-4.1c-4.8,0-6.5-2.4-6.5-7V79h10.6v-8.8
	h-10.6V47.1z"/>
<path class="st0" d="M312.6,100.3c0,10.7-6.6,17.7-16.8,17.7c-10.2,0-16.8-6.9-16.8-17.7V47.1h-11.7v53.7c0,7.9,2.9,15,8.2,20
	c5.2,4.9,12.4,7.6,20.3,7.6c6.5,0,12.5-1.8,17.3-5.2l11.2,5.2V47.1h-11.7V100.3z"/>
<path class="st0" d="M380.1,75.1c-3.3-3.3-8.9-5.7-17.2-5.7c-5.4,0-10.4,2.1-13.5,4.3l-9.4-4.3v58.7h11.5V93c0-9,5-12.8,11.4-12.8
	c6.4,0,11.4,3.9,11.4,12.8v35h11.5V91.3C385.9,84.9,384.5,79.4,380.1,75.1z"/>
<path class="st0" d="M551.9,93c0-9,5-12.8,11.4-12.8c2.2,0,4.3,0.5,6.1,1.5c2-3.2,4.1-6.7,6.1-10c-3.1-1.4-7.2-2.4-12.2-2.4
	c-5.4,0-10.4,2.1-13.5,4.3l-9.4-4.3v58.7h11.5V93z"/>
<rect x="400.2" y="70.2" class="st0" width="11.5" height="57.9"/>
<rect x="400.2" y="47.1" class="st0" width="11.5" height="11.6"/>
<rect x="635.3" y="70.2" class="st0" width="11.5" height="57.9"/>
<rect x="635.3" y="47.1" class="st0" width="11.5" height="11.6"/>
<rect x="457.9" y="181.2" class="st0" width="11.5" height="57.9"/>
<rect x="457.9" y="158.1" class="st0" width="11.5" height="11.6"/>
<path class="st0" d="M507.9,128.9c4.9,0,8.8-0.7,12.3-2.3c3.1-1.4,5.9-3.5,9.1-6.7l-6.8-6.5c-2.1,2.1-4.1,3.4-6.3,4.3
	c-2.2,0.8-4.7,1.2-8.1,1.2c-7.1,0-12-3.6-13.8-10.1l0,0l0,0c5.7-0.8,16.2-1.7,25-6.5c4.3-2.3,7.4-5.1,8.9-9
	c1.1-3.1,1.6-6.9,0.6-10.5c-1.3-4.8-3.5-7.5-6.9-9.8c-3.9-2.6-9.2-3.5-15.5-3.5c-3.8,0-7.3,0.7-10.3,2c-3,1.3-5.5,3.3-7.6,5.8
	c-2.1,2.5-3.6,5.7-4.7,9.3c-1.1,3.7-1.6,7.9-1.6,12.6c0,10.4,2.5,18.2,7.5,23.2C494,126.7,500.2,128.9,507.9,128.9z M493.5,94.4
	c0.1-1.7,0.1-3.1,0.4-4.3c0.2-1.2,0.5-2.3,1.1-3.6c1.7-4,6.1-6.6,11.5-6.6c3.8,0,8.9,0.7,11.2,4.1c0.5,0.7,1.3,2.7,0.6,5
	c-0.8,2.7-3.5,5.1-7.9,6.7c-5.9,2.2-12.6,3.3-16.9,3.7l0,0V94.4z"/>
<path class="st0" d="M363,213.2c4.3-2.3,7.4-5.1,8.9-9c1.1-3.1,1.6-6.9,0.6-10.5c-1.3-4.8-3.5-7.5-6.9-9.8
	c-3.9-2.6-9.2-3.5-15.5-3.5c-3.8,0-7.3,0.7-10.3,2c-3,1.3-5.5,3.3-7.6,5.8c-2.1,2.5-3.6,5.7-4.7,9.3c-1.1,3.7-1.6,7.9-1.6,12.6
	c0,10.4,2.5,18.2,7.5,23.2c4.3,4.4,10.5,6.6,18.2,6.6c4.9,0,8.8-0.7,12.3-2.3c3.1-1.4,5.9-3.5,9.1-6.7l-6.8-6.5
	c-2.1,2.1-4.1,3.4-6.3,4.3c-2.2,0.8-4.7,1.2-8.1,1.2c-7.1,0-12-3.6-13.8-10.1l0,0l0,0C343.7,218.9,354.2,218,363,213.2z
	 M337.2,210.4L337.2,210.4l0-5c0.1-1.7,0.1-3.1,0.4-4.3c0.2-1.2,0.5-2.3,1.1-3.6c1.7-4,6.1-6.6,11.5-6.6c3.8,0,8.9,0.7,11.2,4.1
	c0.5,0.7,1.3,2.7,0.6,5c-0.8,2.7-3.5,5.1-7.9,6.7C348.2,208.8,341.5,209.9,337.2,210.4z"/>
<path class="st0" d="M584.1,213.2c4.3-2.3,7.4-5.1,8.9-9c1.1-3.1,1.6-6.9,0.6-10.5c-1.3-4.8-3.5-7.5-6.9-9.8
	c-3.9-2.6-9.2-3.5-15.5-3.5c-3.8,0-7.3,0.7-10.3,2c-3,1.3-5.5,3.3-7.6,5.8c-2.1,2.5-3.6,5.7-4.7,9.3c-1.1,3.7-1.6,7.9-1.6,12.6
	c0,10.4,2.5,18.2,7.5,23.2c4.3,4.4,10.5,6.6,18.2,6.6c4.9,0,8.8-0.7,12.3-2.3c3.1-1.4,5.9-3.5,9.1-6.7l-6.8-6.5
	c-2.1,2.1-4.1,3.4-6.3,4.3c-2.2,0.8-4.7,1.2-8.1,1.2c-7.1,0-12-3.6-13.8-10.1l0,0l0,0C564.8,218.9,575.3,218,584.1,213.2z
	 M558.3,210.4L558.3,210.4l0-5c0.1-1.7,0.1-3.1,0.4-4.3c0.2-1.2,0.5-2.3,1.1-3.6c1.7-4,6.1-6.6,11.5-6.6c3.8,0,8.9,0.7,11.2,4.1
	c0.5,0.7,1.3,2.7,0.6,5c-0.8,2.7-3.5,5.1-7.9,6.7C569.3,208.8,562.6,209.9,558.3,210.4z"/>
<path class="st0" d="M730.2,117.7c-2.2,0.8-4.7,1.2-8.1,1.2c-7.1,0-12-3.6-13.8-10.1l0,0l0,0c5.7-0.8,16.2-1.7,25-6.5
	c4.3-2.3,7.4-5.1,8.9-9c1.1-3.1,1.6-6.9,0.6-10.5c-1.3-4.8-3.5-7.5-6.9-9.8c-3.9-2.6-9.2-3.5-15.5-3.5c-3.8,0-7.3,0.7-10.3,2
	c-3,1.3-5.5,3.3-7.6,5.8c-2.1,2.5-3.6,5.7-4.7,9.3c-1.1,3.7-1.6,7.9-1.6,12.6c0,10.4,2.5,18.2,7.5,23.2c4.3,4.4,10.5,6.6,18.2,6.6
	c4.9,0,8.8-0.7,12.3-2.3c3.1-1.4,5.9-3.5,9.1-6.7l-6.8-6.5C734.4,115.5,732.4,116.8,730.2,117.7z M707.5,99.4v-5
	c0.1-1.7,0.1-3.1,0.4-4.3c0.2-1.2,0.5-2.3,1.1-3.6c1.7-4,6.1-6.6,11.5-6.6c3.8,0,8.9,0.7,11.2,4.1c0.5,0.7,1.3,2.7,0.6,5
	c-0.8,2.7-3.5,5.1-7.9,6.7C718.5,97.8,711.8,98.9,707.5,99.4L707.5,99.4z"/>
<path class="st0" d="M607.1,94l-9-0.8c-6.1-0.6-7.9-3.2-7.9-6.7c0-4.4,3.5-7.5,10.3-7.5c5.4,0,10.5,1.1,14.1,4.2l7.2-7.5
	c-5.3-4.7-12.6-6.5-21.1-6.5c-11.9,0-21.5,6.4-21.5,17.8c0,10.2,6.2,15.1,16.9,16.1l9.1,0.8c5.5,0.5,7.6,3,7.6,6.9
	c0,5.5-5.5,8-12.5,8c-5.6,0-11.8-1.3-16.4-6.1l-7.5,7.7c6.7,6.8,14.6,8.4,24,8.4c13.6,0,23.7-6.3,23.7-18.5
	C624.1,100.1,617.8,94.9,607.1,94z"/>
<path class="st0" d="M303.5,182.8c-3.3-1.5-7.4-2.3-12.4-2.3c-16.5,0-24.2,10.8-24.2,29.4c0,21.9,11.4,29.5,25.6,29.5
	c5.3,0,9.4-1.8,12.9-4.4l9.6,4.4v-81.3h-11.5V182.8z M303.5,220.8c0,4.1-3.9,8.6-10.7,8.6c-9.3,0-14.5-6.2-14.5-16.1v-8
	c0.1-3.5,0.3-5.2,1.5-7.8c1.8-4.3,6.5-6.5,11.4-6.5c7,0,12.4,2.3,12.4,8.3C303.5,204.6,303.5,215.4,303.5,220.8z"/>
<path class="st0" d="M420.3,222.5v-64.4h-11.5v65.1c0,8.5,4.7,15.9,15.6,15.9H449v-9.9h-22.4C421.9,229.2,420.3,226.9,420.3,222.5z"
	/>
<path class="st0" d="M497.5,221.8v-63.7H486v64.4c0,8.9,4.6,16.6,16,16.6h6.1v-10.3H504C499.2,228.8,497.5,226.4,497.5,221.8z"/>
<path class="st0" d="M529.9,221.8v-63.7h-11.5v64.4c0,8.9,4.6,16.6,16,16.6h6.1v-10.3h-4.1C531.6,228.8,529.9,226.4,529.9,221.8z"/>
<polygon class="st0" points="733.6,44.1 707.4,56.2 707.4,66.3 733.6,54.2 "/>
<rect x="224.8" y="45.2" class="st1" width="9.2" height="45.9"/>
<rect x="224.8" y="26.8" class="st1" width="9.2" height="9.2"/>
<rect x="234" y="45.2" class="st1" width="9.2" height="45.9"/>
<rect x="234" y="26.8" class="st1" width="9.2" height="9.2"/>
<rect x="243.2" y="45.2" class="st1" width="9.2" height="45.9"/>
<rect x="243.2" y="26.8" class="st1" width="9.2" height="9.2"/>
<rect x="252.3" y="45.2" class="st1" width="4.6" height="45.9"/>
<rect x="252.3" y="26.8" class="st1" width="4.6" height="9.2"/>
</svg>
